PathFileType	4	(X/Y/Z)	/Users/itak/Documents/Research/Walk-IL/dataset/trc/00467_00167.trc
DataRate	CameraRate	NumFrames	NumMarkers	Units	OrigDataRate	OrigDataStartFrame	OrigNumFrames
100.000000	100.000000	4	53	mm	100.000000	532	608
Frame#	Time	RPSI			LPSI			L3			STRN			T10			C7			CLAV			RBAK			LBAK			LSHO			LUPA			LAEL			LAOL			LWTS			LWPS			LFRA			LIFD			LHPS			LHTS			RSHO			RUPA			RAEL			RAOL			RWTS			RWPS			RFRA			RIFD			RHTS			RHPS			RBHD			LFHD			RFHD			LBHD			LHIP			RHIP			RASI			LASI			LKNE			LTHI			LANK			LTIP			LTOE			LMT1			LMT5			LHEE			RKNE			RTHI			RANK			RTIP			RTOE			RMT1			RMT5			RHEE			
		X1	Y1	Z1	X2	Y2	Z2	X3	Y3	Z3	X4	Y4	Z4	X5	Y5	Z5	X6	Y6	Z6	X7	Y7	Z7	X8	Y8	Z8	X9	Y9	Z9	X10	Y10	Z10	X11	Y11	Z11	X12	Y12	Z12	X13	Y13	Z13	X14	Y14	Z14	X15	Y15	Z15	X16	Y16	Z16	X17	Y17	Z17	X18	Y18	Z18	X19	Y19	Z19	X20	Y20	Z20	X21	Y21	Z21	X22	Y22	Z22	X23	Y23	Z23	X24	Y24	Z24	X25	Y25	Z25	X26	Y26	Z26	X27	Y27	Z27	X28	Y28	Z28	X29	Y29	Z29	X30	Y30	Z30	X31	Y31	Z31	X32	Y32	Z32	X33	Y33	Z33	X34	Y34	Z34	X35	Y35	Z35	X36	Y36	Z36	X37	Y37	Z37	X38	Y38	Z38	X39	Y39	Z39	X40	Y40	Z40	X41	Y41	Z41	X42	Y42	Z42	X43	Y43	Z43	X44	Y44	Z44	X45	Y45	Z45	X46	Y46	Z46	X47	Y47	Z47	X48	Y48	Z48	X49	Y49	Z49	X50	Y50	Z50	X51	Y51	Z51	X52	Y52	Z52	X53	Y53	Z53	

533	5.32	-514.2081298828125	958.014892578125	-518.0523681640625	-523.957275390625	958.8304443359375	-375.67578125	-532.5473022460938	1053.7734375	-474.3259887695312	-801.3826904296875	1252.297729492188	-484.6839599609375	-519.1646118164062	1177.86669921875	-484.8800048828125	-575.4730834960938	1447.503540039062	-513.0531616210938	-762.2938842773438	1364.586303710938	-487.5941772460938	-519.6068115234375	1320.203247070312	-603.8286743164062	-539.0989990234375	1402.269287109375	-411.7091674804688	-639.1669311523438	1423.668334960938	-329.5921325683594	-626.983642578125	1306.420043945312	-230.4652557373047	-651.2090454101562	1092.750732421875	-189.0424194335938	-577.8665771484375	1072.63720703125	-259.4155883789062	-743.04736328125	895.6401977539062	-222.2958526611328	-693.9925537109375	878.3786010742188	-168.8047790527344	-675.8311157226562	1006.393188476562	-175.5212097167969	-760.0232543945312	739.6470336914062	-201.2774353027344	-707.0684814453125	802.6907348632812	-165.0075836181641	-765.1370239257812	814.1184692382812	-206.7751770019531	-652.1353149414062	1409.79052734375	-667.9990844726562	-639.463134765625	1346.004150390625	-741.632080078125	-660.7150268554688	1063.667358398438	-801.9979858398438	-608.8298950195312	1043.336303710938	-762.239501953125	-769.4645385742188	860.9019165039062	-760.6654663085938	-705.6473388671875	846.5676879882812	-820.3687744140625	-666.5857543945312	1005.763305664062	-813.3256225585938	-777.6729125976562	705.9365844726562	-778.8190307617188	-787.6036376953125	765.4855346679688	-775.3530883789062	-724.3474731445312	761.051513671875	-820.5435791015625	-676.6795043945312	1646.659545898438	-597.1810302734375	-785.1201171875	1660.894653320312	-421.9059143066406	-806.3943481445312	1660.60498046875	-551.1265869140625	-632.773193359375	1652.401611328125	-425.4660339355469	-667.7083129882812	865.2764282226562	-262.7571105957031	-626.0736694335938	853.247314453125	-661.819091796875	-730.99560546875	896.6787109375	-603.4329833984375	-760.8299560546875	902.5751953125	-348.8707580566406	-729.9573974609375	452.1999816894531	-262.5350952148438	-730.178955078125	604.6187133789062	-253.9999542236328	-649.2238159179688	44.31678009033203	-211.9673614501953	-720.2819213867188	302.9795227050781	-232.3802795410156	-871.2908325195312	45.19184494018555	-311.1519165039062	-791.4357299804688	50.15119934082031	-329.291259765625	-804.2490234375	46.31135177612305	-216.2322540283203	-596.9894409179688	45.46389770507812	-270.5926208496094	-691.67529296875	465.2688598632812	-616.2138061523438	-679.5093994140625	721.9708251953125	-665.0361938476562	-620.27490234375	47.30172729492188	-601.0276489257812	-690.8828735351562	318.6495056152344	-618.5700073242188	-828.0811157226562	48.14558029174805	-533.1943359375	-760.9967041015625	45.12028884887695	-500.719482421875	-755.5145263671875	46.96205902099609	-609.4375	-549.8744506835938	41.44199371337891	-563.1016235351562	
534	5.33	-516.5193481445312	958.4541015625	-517.2300415039062	-525.8450317382812	959.8828735351562	-374.9790344238281	-534.7230224609375	1054.180908203125	-473.1116638183594	-802.9464721679688	1253.28515625	-482.5199279785156	-520.7225341796875	1178.386352539062	-483.1836547851562	-576.7267456054688	1447.968383789062	-511.1011047363281	-763.5750122070312	1365.439575195312	-485.5740966796875	-520.8798217773438	1320.6630859375	-601.7230224609375	-540.4031982421875	1402.82421875	-409.7201843261719	-640.3806762695312	1424.490112304688	-327.542236328125	-628.3489990234375	1307.189331054688	-228.4591979980469	-652.6341552734375	1093.501220703125	-187.3711242675781	-579.5372924804688	1073.651977539062	-258.0625	-742.943603515625	895.4710693359375	-219.7199096679688	-693.5388793945312	878.7723999023438	-166.3338317871094	-676.5598754882812	1007.039489746094	-173.5760192871094	-758.4174194335938	739.3110961914062	-198.4052276611328	-705.8408813476562	802.86083984375	-162.5122985839844	-764.1575927734375	813.7005004882812	-204.0514373779297	-653.4540405273438	1409.98681640625	-666.11181640625	-640.4865112304688	1345.8203125	-739.4248657226562	-660.4457397460938	1063.0439453125	-797.9923095703125	-608.4063720703125	1043.55517578125	-757.9425659179688	-767.1753540039062	859.2426147460938	-755.6678466796875	-703.2008666992188	845.4537353515625	-815.525390625	-665.775146484375	1005.097839355469	-809.0633544921875	-773.1178588867188	703.9954223632812	-773.2301635742188	-783.8634643554688	763.3887329101562	-769.996337890625	-720.7191162109375	759.7841186523438	-815.3362426757812	-677.3471069335938	1647.087646484375	-595.345947265625	-785.9059448242188	1661.824951171875	-420.1976013183594	-807.0465087890625	1661.42431640625	-549.3776245117188	-633.532958984375	1652.963745117188	-423.6234130859375	-668.9407348632812	866.4839477539062	-261.4369812011719	-628.6720581054688	853.4730224609375	-660.3826293945312	-733.9175415039062	896.9012451171875	-601.8906860351562	-762.5569458007812	903.5938110351562	-347.1308898925781	-728.424560546875	452.6958618164062	-261.0835876464844	-730.0386962890625	605.4160766601562	-252.5254821777344	-649.2536010742188	44.07825088500977	-211.6338958740234	-719.2235717773438	303.4883422851562	-231.2374572753906	-871.2656860351562	45.37483215332031	-310.6530151367188	-791.5325317382812	50.60147857666016	-328.7543640136719	-804.297607421875	45.97847366333008	-215.7405090332031	-597.0636596679688	45.59535217285156	-270.2579345703125	-692.2562255859375	465.4132995605469	-615.1778564453125	-681.3939208984375	722.1033325195312	-663.7753295898438	-620.2791748046875	47.52451705932617	-600.843994140625	-691.3369750976562	318.8593139648438	-617.8047485351562	-828.2125244140625	47.94865417480469	-533.1213989257812	-761.074462890625	45.03734588623047	-500.6756896972656	-755.5753784179688	46.99424743652344	-609.3377075195312	-549.9341430664062	41.69402313232422	-562.9391479492188	
535	5.34	-518.8280639648438	958.9718627929688	-516.5374145507812	-527.6121215820312	960.9974975585938	-374.4150695800781	-536.925048828125	1054.68603515625	-472.0303649902344	-804.4367065429688	1254.333862304688	-480.32275390625	-522.175048828125	1178.9482421875	-481.6037292480469	-577.9815673828125	1448.462768554688	-509.1259460449219	-764.8203735351562	1366.368530273438	-483.5200500488281	-522.1939697265625	1321.2197265625	-599.6470947265625	-541.6837158203125	1403.448364257812	-407.7297973632812	-641.5911865234375	1425.454711914062	-325.5087280273438	-629.7034301757812	1308.209716796875	-226.3798980712891	-653.958740234375	1094.48046875	-185.6195526123047	-581.1356811523438	1074.915405273438	-256.6607666015625	-742.8991088867188	895.5950927734375	-217.0165100097656	-693.1192016601562	879.4054565429688	-163.7827911376953	-677.239990234375	1007.943115234375	-171.5348205566406	-756.8583374023438	739.226806640625	-195.528076171875	-704.6622924804688	803.2623291015625	-159.9692535400391	-763.2564086914062	813.5433349609375	-201.2418975830078	-654.7694702148438	1410.340942382812	-664.1620483398438	-641.482177734375	1345.902221679688	-737.205078125	-659.9725952148438	1062.645874023438	-794.0214233398438	-607.85107421875	1043.991943359375	-753.6646728515625	-764.8974609375	857.9446411132812	-750.7638549804688	-700.7471923828125	844.5905151367188	-810.6752319335938	-664.8071899414062	1004.67236328125	-804.8270874023438	-768.7636108398438	702.437255859375	-767.66015625	-780.3067016601562	761.6976928710938	-764.6175537109375	-717.1741943359375	758.839111328125	-810.1170043945312	-677.979736328125	1647.483764648438	-593.5071411132812	-786.69921875	1662.778686523438	-418.5082397460938	-807.6756591796875	1662.220703125	-547.6477661132812	-634.310546875	1653.532836914062	-421.7566223144531	-670.0518798828125	867.7447509765625	-260.1274719238281	-631.2957153320312	853.7505493164062	-658.988525390625	-736.8862915039062	897.1488037109375	-600.3235473632812	-764.134521484375	904.7199096679688	-345.3663330078125	-726.8680419921875	453.1946105957031	-259.5523681640625	-729.9977416992188	606.2791748046875	-251.0347747802734	-649.2872924804688	43.79837417602539	-211.2392578125	-718.1200561523438	304.0084533691406	-230.0039520263672	-871.2294921875	45.58000183105469	-310.1180419921875	-791.61279296875	51.09695053100586	-328.1800231933594	-804.3394775390625	45.6134147644043	-215.2120056152344	-597.1500244140625	45.74494552612305	-269.8691101074219	-692.64453125	465.6019897460938	-614.157470703125	-683.2326049804688	722.2963256835938	-662.5245971679688	-620.2964477539062	47.73886489868164	-600.6792602539062	-691.6610717773438	319.0858154296875	-617.0487060546875	-828.3029174804688	47.78056716918945	-533.0565795898438	-761.1385498046875	44.96315383911133	-500.6251525878906	-755.6273193359375	47.02717971801758	-609.2391357421875	-550.0206298828125	41.92572784423828	-562.7958374023438	
536	5.350000000000001	-521.1251831054688	959.5402221679688	-515.8878173828125	-529.2863159179688	962.069091796875	-373.8853759765625	-539.144287109375	1055.235595703125	-471.0149841308594	-805.8521118164062	1255.369140625	-478.1020812988281	-523.521728515625	1179.493286132812	-480.0889282226562	-579.2354125976562	1448.947509765625	-507.1249389648438	-766.0429077148438	1367.305541992188	-481.429931640625	-523.5419311523438	1321.81591796875	-597.5923461914062	-542.9475708007812	1404.081909179688	-405.7320861816406	-642.7993774414062	1426.487426757812	-323.4864501953125	-631.0393676757812	1309.401123046875	-224.2198944091797	-655.1663208007812	1095.6083984375	-183.7595520019531	-582.6393432617188	1076.338500976562	-255.1756134033203	-742.9387817382812	895.9594116210938	-214.1755218505859	-692.7600708007812	880.2072143554688	-161.1482849121094	-677.8659057617188	1009.021301269531	-169.3739318847656	-755.4274291992188	739.3521118164062	-192.6515045166016	-703.58349609375	803.8300170898438	-157.3790435791016	-762.482421875	813.6031494140625	-198.3485412597656	-656.07373046875	1410.801391601562	-662.153076171875	-642.449951171875	1346.197998046875	-734.9838256835938	-659.3153686523438	1062.431396484375	-790.1270141601562	-607.193359375	1044.580200195312	-749.4487915039062	-762.6549682617188	856.9534912109375	-746.0048828125	-698.3345947265625	843.9312133789062	-805.8587646484375	-663.7066040039062	1004.437255859375	-800.6597900390625	-764.6541137695312	701.2077026367188	-762.0944213867188	-776.9523315429688	760.3521728515625	-759.2382202148438	-713.7630615234375	758.1393432617188	-804.8988647460938	-678.5731201171875	1647.822875976562	-591.6660766601562	-787.477294921875	1663.726806640625	-416.8330383300781	-808.2735595703125	1662.971557617188	-545.9414672851562	-635.0987548828125	1654.07470703125	-419.8612060546875	-671.0809326171875	868.9329223632812	-258.7915649414062	-633.9154052734375	854.0813598632812	-657.6278076171875	-739.8477172851562	897.4090576171875	-598.7225341796875	-765.6007690429688	905.8194580078125	-343.5526428222656	-725.3023071289062	453.6441955566406	-257.993408203125	-729.9522094726562	607.0724487304688	-249.4944763183594	-649.3054809570312	43.493896484375	-210.8243103027344	-716.97802734375	304.4932861328125	-228.7440185546875	-871.1934814453125	45.78115463256836	-309.5822448730469	-791.6661987304688	51.59475326538086	-327.6139526367188	-804.370849609375	45.24536895751953	-214.680908203125	-597.2297973632812	45.88471603393555	-269.4763488769531	-692.8667602539062	465.8233032226562	-613.1351318359375	-685.0234985351562	722.5333862304688	-661.2735595703125	-620.3271484375	47.93834686279297	-600.5331420898438	-691.874755859375	319.3301696777344	-616.2872924804688	-828.3599853515625	47.64115905761719	-532.9923095703125	-761.1906127929688	44.89668273925781	-500.5641784667969	-755.6685180664062	47.05966567993164	-609.1441650390625	-550.1320190429688	42.12869262695312	-562.6649169921875	
